<svg xmlns="http://www.w3.org/2000/svg" width="100%" height="400" viewBox="0 0 1000 400"><defs><linearGradient id="ag" x1="0" y1="0" x2="100%" y2="0"><stop offset="0" stop-color="#58a6ff"/><stop offset="100%" stop-color="#3fb950"/></linearGradient></defs><rect width="1000" height="400" rx="14" fill="#161b22"/><rect x="0" y="0" width="4" height="400" rx="2" fill="url(#ag)"/><text x="50" y="40" fill="#f0f6fc" font-size="22" font-weight="bold" font-family="-apple-system,BlinkMacSystemFont,Segoe UI,Helvetica,Arial,sans-serif" text-anchor="start">Recent Activity</text><rect x="50" y="52" width="140" height="3" rx="1.5" fill="url(#ag)"/><rect x="50" y="96" width="900" height="52" rx="8" fill="#0d1117" opacity="0.5"/>
<rect x="50" y="96" width="4" height="52" rx="2" fill="#3fb950"/>
<rect x="50" y="154" width="900" height="52" rx="8" fill="#0d1117" opacity="0.5"/>
<rect x="50" y="154" width="4" height="52" rx="2" fill="#3fb950"/>
<rect x="50" y="212" width="900" height="52" rx="8" fill="#0d1117" opacity="0.5"/>
<rect x="50" y="212" width="4" height="52" rx="2" fill="#d29922"/>
<rect x="50" y="270" width="900" height="52" rx="8" fill="#0d1117" opacity="0.5"/>
<rect x="50" y="270" width="4" height="52" rx="2" fill="#bc8cff"/>
<rect x="50" y="328" width="900" height="52" rx="8" fill="#0d1117" opacity="0.5"/>
<rect x="50" y="328" width="4" height="52" rx="2" fill="#3fb950"/>
<circle cx="70" cy="122" r="14" fill="#3fb950" opacity="0.12"/>
<circle cx="70" cy="180" r="14" fill="#3fb950" opacity="0.12"/>
<circle cx="70" cy="238" r="14" fill="#d29922" opacity="0.12"/>
<circle cx="70" cy="296" r="14" fill="#bc8cff" opacity="0.12"/>
<circle cx="70" cy="354" r="14" fill="#3fb950" opacity="0.12"/>
<svg x="58" y="110" width="24" height="24" viewBox="0 0 24 24"><path d="M12 19V5M5 12l7-7 7 7" fill="none" stroke="#3fb950" stroke-width="2"/></svg><svg x="58" y="168" width="24" height="24" viewBox="0 0 24 24"><path d="M12 19V5M5 12l7-7 7 7" fill="none" stroke="#3fb950" stroke-width="2"/></svg><svg x="58" y="226" width="24" height="24" viewBox="0 0 24 24"><path d="M12 2l3.09 6.26L22 9.27l-5 4.87 1.18 6.88L12 17.77l-6.18 3.25L7 14.14l-5-4.87 6.91-1.01L12 2z" fill="#d29922" opacity="0.8"/></svg><svg x="58" y="284" width="24" height="24" viewBox="0 0 24 24"><path d="M14 2H6a2 2 0 00-2 2v16a2 2 0 002 2h12a2 2 0 002-2V8l-6-6z" fill="none" stroke="#bc8cff" stroke-width="1.5"/><path d="M14 2v6h6" fill="none" stroke="#bc8cff" stroke-width="1.5"/></svg><svg x="58" y="342" width="24" height="24" viewBox="0 0 24 24"><path d="M12 19V5M5 12l7-7 7 7" fill="none" stroke="#3fb950" stroke-width="2"/></svg><text x="96" y="118" fill="#f0f6fc" font-size="14" font-weight="bold" font-family="-apple-system,BlinkMacSystemFont,Segoe UI,Helvetica,Arial,sans-serif" text-anchor="start">Pushed in Spotium</text><text x="96" y="138" fill="#8b949e" font-size="12" font-weight="normal" font-family="-apple-system,BlinkMacSystemFont,Segoe UI,Helvetica,Arial,sans-serif" text-anchor="start">3 commits - fix: update renderer</text><text x="96" y="176" fill="#f0f6fc" font-size="14" font-weight="bold" font-family="-apple-system,BlinkMacSystemFont,Segoe UI,Helvetica,Arial,sans-serif" text-anchor="start">Pushed in GitHubWall</text><text x="96" y="196" fill="#8b949e" font-size="12" font-weight="normal" font-family="-apple-system,BlinkMacSystemFont,Segoe UI,Helvetica,Arial,sans-serif" text-anchor="start">5 commits - initial: version 2.0</text><text x="96" y="234" fill="#f0f6fc" font-size="14" font-weight="bold" font-family="-apple-system,BlinkMacSystemFont,Segoe UI,Helvetica,Arial,sans-serif" text-anchor="start">Starred in Spotium</text><text x="96" y="254" fill="#8b949e" font-size="12" font-weight="normal" font-family="-apple-system,BlinkMacSystemFont,Segoe UI,Helvetica,Arial,sans-serif" text-anchor="start">starred this repo</text><text x="96" y="292" fill="#f0f6fc" font-size="14" font-weight="bold" font-family="-apple-system,BlinkMacSystemFont,Segoe UI,Helvetica,Arial,sans-serif" text-anchor="start">Created in GitHubWall</text><text x="96" y="312" fill="#8b949e" font-size="12" font-weight="normal" font-family="-apple-system,BlinkMacSystemFont,Segoe UI,Helvetica,Arial,sans-serif" text-anchor="start">repository main</text><text x="96" y="350" fill="#f0f6fc" font-size="14" font-weight="bold" font-family="-apple-system,BlinkMacSystemFont,Segoe UI,Helvetica,Arial,sans-serif" text-anchor="start">Pushed in GitHubWall</text><text x="96" y="370" fill="#8b949e" font-size="12" font-weight="normal" font-family="-apple-system,BlinkMacSystemFont,Segoe UI,Helvetica,Arial,sans-serif" text-anchor="start">2 commits - docs: update readme</text></svg>