<svg xmlns="http://www.w3.org/2000/svg" width="100%" height="404" viewBox="0 0 1000 404"><defs><linearGradient id="ag" x1="0" y1="0" x2="100%" y2="0"><stop offset="0" stop-color="#58a6ff"/><stop offset="100%" stop-color="#3fb950"/></linearGradient><linearGradient id="ag2" x1="0" y1="0" x2="0" y2="100%"><stop offset="0" stop-color="#58a6ff" stop-opacity="0.15"/><stop offset="100%" stop-color="#3fb950" stop-opacity="0"/></linearGradient></defs><rect width="1000" height="404" rx="14" fill="#161b22"/><rect x="0" y="0" width="4" height="404" rx="2" fill="url(#ag)"/><text x="50" y="40" fill="#f0f6fc" font-size="22" font-weight="bold" font-family="-apple-system,BlinkMacSystemFont,Segoe UI,Helvetica,Arial,sans-serif" text-anchor="start">Recent Activity</text><rect x="50" y="52" width="140" height="3" rx="1.5" fill="url(#ag)"/><rect x="4" y="0" width="996" height="80" rx="0" fill="url(#ag2)"/><rect x="50" y="100" width="900" height="52" rx="8" fill="#0d1117" opacity="0.5"/>
<rect x="50" y="100" width="4" height="52" rx="2" fill="#3fb950"/>
<circle cx="68" cy="126" r="14" fill="#3fb950" opacity="0.12"/>
<text x="68" y="131" fill="#3fb950" font-size="13" font-weight="bold" font-family="-apple-system,BlinkMacSystemFont,Segoe UI,Helvetica,Arial,sans-serif" text-anchor="middle">↑</text>
<text x="96" y="122" fill="#f0f6fc" font-size="14" font-weight="bold" font-family="-apple-system,BlinkMacSystemFont,Segoe UI,Helvetica,Arial,sans-serif" text-anchor="start">Pushed in Spotium</text>
<text x="96" y="142" fill="#8b949e" font-size="12" font-weight="normal" font-family="-apple-system,BlinkMacSystemFont,Segoe UI,Helvetica,Arial,sans-serif" text-anchor="start">3 commits - fix: update renderer</text>
<rect x="50" y="158" width="900" height="52" rx="8" fill="#0d1117" opacity="0.5"/>
<rect x="50" y="158" width="4" height="52" rx="2" fill="#3fb950"/>
<circle cx="68" cy="184" r="14" fill="#3fb950" opacity="0.12"/>
<text x="68" y="189" fill="#3fb950" font-size="13" font-weight="bold" font-family="-apple-system,BlinkMacSystemFont,Segoe UI,Helvetica,Arial,sans-serif" text-anchor="middle">↑</text>
<text x="96" y="180" fill="#f0f6fc" font-size="14" font-weight="bold" font-family="-apple-system,BlinkMacSystemFont,Segoe UI,Helvetica,Arial,sans-serif" text-anchor="start">Pushed in GitHubWall</text>
<text x="96" y="200" fill="#8b949e" font-size="12" font-weight="normal" font-family="-apple-system,BlinkMacSystemFont,Segoe UI,Helvetica,Arial,sans-serif" text-anchor="start">5 commits - initial: version 2.0</text>
<rect x="50" y="216" width="900" height="52" rx="8" fill="#0d1117" opacity="0.5"/>
<rect x="50" y="216" width="4" height="52" rx="2" fill="#d29922"/>
<circle cx="68" cy="242" r="14" fill="#d29922" opacity="0.12"/>
<text x="68" y="247" fill="#d29922" font-size="13" font-weight="bold" font-family="-apple-system,BlinkMacSystemFont,Segoe UI,Helvetica,Arial,sans-serif" text-anchor="middle">★</text>
<text x="96" y="238" fill="#f0f6fc" font-size="14" font-weight="bold" font-family="-apple-system,BlinkMacSystemFont,Segoe UI,Helvetica,Arial,sans-serif" text-anchor="start">Starred in Spotium</text>
<text x="96" y="258" fill="#8b949e" font-size="12" font-weight="normal" font-family="-apple-system,BlinkMacSystemFont,Segoe UI,Helvetica,Arial,sans-serif" text-anchor="start">starred this repo</text>
<rect x="50" y="274" width="900" height="52" rx="8" fill="#0d1117" opacity="0.5"/>
<rect x="50" y="274" width="4" height="52" rx="2" fill="#bc8cff"/>
<circle cx="68" cy="300" r="14" fill="#bc8cff" opacity="0.12"/>
<text x="68" y="305" fill="#bc8cff" font-size="13" font-weight="bold" font-family="-apple-system,BlinkMacSystemFont,Segoe UI,Helvetica,Arial,sans-serif" text-anchor="middle">+</text>
<text x="96" y="296" fill="#f0f6fc" font-size="14" font-weight="bold" font-family="-apple-system,BlinkMacSystemFont,Segoe UI,Helvetica,Arial,sans-serif" text-anchor="start">Created in GitHubWall</text>
<text x="96" y="316" fill="#8b949e" font-size="12" font-weight="normal" font-family="-apple-system,BlinkMacSystemFont,Segoe UI,Helvetica,Arial,sans-serif" text-anchor="start">repository main</text>
<rect x="50" y="332" width="900" height="52" rx="8" fill="#0d1117" opacity="0.5"/>
<rect x="50" y="332" width="4" height="52" rx="2" fill="#3fb950"/>
<circle cx="68" cy="358" r="14" fill="#3fb950" opacity="0.12"/>
<text x="68" y="363" fill="#3fb950" font-size="13" font-weight="bold" font-family="-apple-system,BlinkMacSystemFont,Segoe UI,Helvetica,Arial,sans-serif" text-anchor="middle">↑</text>
<text x="96" y="354" fill="#f0f6fc" font-size="14" font-weight="bold" font-family="-apple-system,BlinkMacSystemFont,Segoe UI,Helvetica,Arial,sans-serif" text-anchor="start">Pushed in GitHubWall</text>
<text x="96" y="374" fill="#8b949e" font-size="12" font-weight="normal" font-family="-apple-system,BlinkMacSystemFont,Segoe UI,Helvetica,Arial,sans-serif" text-anchor="start">2 commits - docs: update readme</text>
</svg>