<svg xmlns="http://www.w3.org/2000/svg" width="100%" height="1606" viewBox="0 0 1000 1606"><defs><linearGradient id="ag" x1="0" y1="0" x2="100%" y2="0"><stop offset="0" stop-color="#58a6ff"/><stop offset="100%" stop-color="#3fb950"/></linearGradient></defs><rect width="1000" height="1606" fill="#0d1117"/>
<g transform="translate(0,0)">
<rect width="1000" height="360" rx="14" fill="#161b22"/><rect x="0" y="0" width="4" height="360" rx="2" fill="url(#ag)"/><text x="50" y="40" fill="#f0f6fc" font-size="22" font-weight="bold" font-family="-apple-system,BlinkMacSystemFont,Segoe UI,Helvetica,Arial,sans-serif" text-anchor="start">Most Used Languages</text><rect x="50" y="52" width="140" height="3" rx="1.5" fill="url(#ag)"/><rect x="44" y="84" width="912" height="252" rx="10" fill="#0d1117" opacity="0.6"/><rect x="50" y="96" width="267" height="28" rx="6" fill="#012456" opacity="0.85"/>
<rect x="51" y="124" width="267" height="4" rx="2" fill="#012456" opacity="0.15"/>
<circle cx="333" cy="110" r="5" fill="#012456"/>
<rect x="50" y="136" width="149" height="28" rx="6" fill="#3572A5" opacity="0.85"/>
<rect x="51" y="164" width="149" height="4" rx="2" fill="#3572A5" opacity="0.15"/>
<circle cx="215" cy="150" r="5" fill="#3572A5"/>
<rect x="50" y="176" width="130" height="28" rx="6" fill="#f1e05a" opacity="0.85"/>
<rect x="51" y="204" width="130" height="4" rx="2" fill="#f1e05a" opacity="0.15"/>
<circle cx="196" cy="190" r="5" fill="#f1e05a"/>
<rect x="50" y="216" width="93" height="28" rx="6" fill="#563d7c" opacity="0.85"/>
<rect x="51" y="244" width="93" height="4" rx="2" fill="#563d7c" opacity="0.15"/>
<circle cx="159" cy="230" r="5" fill="#563d7c"/>
<rect x="50" y="256" width="56" height="28" rx="6" fill="#e34c26" opacity="0.85"/>
<rect x="51" y="284" width="56" height="4" rx="2" fill="#e34c26" opacity="0.15"/>
<circle cx="122" cy="270" r="5" fill="#e34c26"/>
<rect x="50" y="296" width="12" height="28" rx="6" fill="#C1F12E" opacity="0.85"/>
<rect x="51" y="324" width="12" height="4" rx="2" fill="#C1F12E" opacity="0.15"/>
<circle cx="78" cy="310" r="5" fill="#C1F12E"/>
<text x="345" y="116" fill="#f0f6fc" font-size="14" font-weight="bold" font-family="-apple-system,BlinkMacSystemFont,Segoe UI,Helvetica,Arial,sans-serif" text-anchor="start">PowerShell</text><rect x="904" y="98" width="46" height="22" rx="11" fill="#8b949e" opacity="0.12"/><text x="948" y="114" fill="#8b949e" font-size="12" font-weight="bold" font-family="-apple-system,BlinkMacSystemFont,Segoe UI,Helvetica,Arial,sans-serif" text-anchor="end">37.7%</text><text x="227" y="156" fill="#f0f6fc" font-size="14" font-weight="bold" font-family="-apple-system,BlinkMacSystemFont,Segoe UI,Helvetica,Arial,sans-serif" text-anchor="start">Python</text><rect x="904" y="138" width="46" height="22" rx="11" fill="#8b949e" opacity="0.12"/><text x="948" y="154" fill="#8b949e" font-size="12" font-weight="bold" font-family="-apple-system,BlinkMacSystemFont,Segoe UI,Helvetica,Arial,sans-serif" text-anchor="end">21.1%</text><text x="208" y="196" fill="#f0f6fc" font-size="14" font-weight="bold" font-family="-apple-system,BlinkMacSystemFont,Segoe UI,Helvetica,Arial,sans-serif" text-anchor="start">JavaScript</text><rect x="904" y="178" width="46" height="22" rx="11" fill="#8b949e" opacity="0.12"/><text x="948" y="194" fill="#8b949e" font-size="12" font-weight="bold" font-family="-apple-system,BlinkMacSystemFont,Segoe UI,Helvetica,Arial,sans-serif" text-anchor="end">18.4%</text><text x="171" y="236" fill="#f0f6fc" font-size="14" font-weight="bold" font-family="-apple-system,BlinkMacSystemFont,Segoe UI,Helvetica,Arial,sans-serif" text-anchor="start">CSS</text><rect x="904" y="218" width="46" height="22" rx="11" fill="#8b949e" opacity="0.12"/><text x="948" y="234" fill="#8b949e" font-size="12" font-weight="bold" font-family="-apple-system,BlinkMacSystemFont,Segoe UI,Helvetica,Arial,sans-serif" text-anchor="end">13.2%</text><text x="134" y="276" fill="#f0f6fc" font-size="14" font-weight="bold" font-family="-apple-system,BlinkMacSystemFont,Segoe UI,Helvetica,Arial,sans-serif" text-anchor="start">HTML</text><rect x="904" y="258" width="46" height="22" rx="11" fill="#8b949e" opacity="0.12"/><text x="948" y="274" fill="#8b949e" font-size="12" font-weight="bold" font-family="-apple-system,BlinkMacSystemFont,Segoe UI,Helvetica,Arial,sans-serif" text-anchor="end">7.9%</text><text x="90" y="316" fill="#f0f6fc" font-size="14" font-weight="bold" font-family="-apple-system,BlinkMacSystemFont,Segoe UI,Helvetica,Arial,sans-serif" text-anchor="start">Batchfile</text><rect x="904" y="298" width="46" height="22" rx="11" fill="#8b949e" opacity="0.12"/><text x="948" y="314" fill="#8b949e" font-size="12" font-weight="bold" font-family="-apple-system,BlinkMacSystemFont,Segoe UI,Helvetica,Arial,sans-serif" text-anchor="end">1.8%</text>
</g>

<g transform="translate(0,380)">
<rect width="1000" height="246" rx="14" fill="#161b22"/><rect x="0" y="0" width="4" height="246" rx="2" fill="url(#ag)"/><text x="50" y="40" fill="#f0f6fc" font-size="22" font-weight="bold" font-family="-apple-system,BlinkMacSystemFont,Segoe UI,Helvetica,Arial,sans-serif" text-anchor="start">GitHub Statistics</text><rect x="50" y="52" width="140" height="3" rx="1.5" fill="url(#ag)"/><rect x="50" y="96" width="213" height="120" rx="10" fill="#0d1117" opacity="0.6"/><rect x="279" y="96" width="213" height="120" rx="10" fill="#0d1117" opacity="0.6"/><rect x="508" y="96" width="213" height="120" rx="10" fill="#0d1117" opacity="0.6"/><rect x="737" y="96" width="213" height="120" rx="10" fill="#0d1117" opacity="0.6"/><svg x="144" y="106" width="24" height="24" viewBox="0 0 24 24"><path d="M6 7v10a2 2 0 002 2h8a2 2 0 002-2V7" fill="none" stroke="#58a6ff" stroke-width="1.5"/><path d="M6 7l6-3 6 3" fill="none" stroke="#58a6ff" stroke-width="1.5"/><path d="M6 11h12M9 7v10" fill="none" stroke="#58a6ff" stroke-width="1.5"/></svg><svg x="373" y="106" width="24" height="24" viewBox="0 0 24 24"><path d="M12 2l3.09 6.26L22 9.27l-5 4.87 1.18 6.88L12 17.77l-6.18 3.25L7 14.14l-5-4.87 6.91-1.01L12 2z" fill="none" stroke="#d29922" stroke-width="1.5"/></svg><svg x="602" y="106" width="24" height="24" viewBox="0 0 24 24"><path d="M12 7a3 3 0 100-6 3 3 0 000 6zM12 7a3 3 0 100-6 3 3 0 000 6zM12 17a3 3 0 100-6 3 3 0 000 6z" fill="none" stroke="#bc8cff" stroke-width="1.5"/><path d="M12 10v3M17 4.5l-5 3M17 12.5l-5-3" fill="none" stroke="#bc8cff" stroke-width="1.5"/></svg><svg x="831" y="106" width="24" height="24" viewBox="0 0 24 24"><path d="M17 21v-2a4 4 0 00-4-4H5a4 4 0 00-4 4v2" fill="none" stroke="#3fb950" stroke-width="1.5"/><circle cx="9" cy="7" r="4" fill="none" stroke="#3fb950" stroke-width="1.5"/></svg><text x="156" y="158" fill="#58a6ff" font-size="38" font-weight="bold" font-family="-apple-system,BlinkMacSystemFont,Segoe UI,Helvetica,Arial,sans-serif" text-anchor="middle">3</text><text x="156" y="186" fill="#8b949e" font-size="13" font-weight="normal" font-family="-apple-system,BlinkMacSystemFont,Segoe UI,Helvetica,Arial,sans-serif" text-anchor="middle">Repos</text><text x="385" y="158" fill="#d29922" font-size="38" font-weight="bold" font-family="-apple-system,BlinkMacSystemFont,Segoe UI,Helvetica,Arial,sans-serif" text-anchor="middle">0</text><text x="385" y="186" fill="#8b949e" font-size="13" font-weight="normal" font-family="-apple-system,BlinkMacSystemFont,Segoe UI,Helvetica,Arial,sans-serif" text-anchor="middle">Stars</text><text x="614" y="158" fill="#bc8cff" font-size="38" font-weight="bold" font-family="-apple-system,BlinkMacSystemFont,Segoe UI,Helvetica,Arial,sans-serif" text-anchor="middle">0</text><text x="614" y="186" fill="#8b949e" font-size="13" font-weight="normal" font-family="-apple-system,BlinkMacSystemFont,Segoe UI,Helvetica,Arial,sans-serif" text-anchor="middle">Forks</text><text x="843" y="158" fill="#3fb950" font-size="38" font-weight="bold" font-family="-apple-system,BlinkMacSystemFont,Segoe UI,Helvetica,Arial,sans-serif" text-anchor="middle">0</text><text x="843" y="186" fill="#8b949e" font-size="13" font-weight="normal" font-family="-apple-system,BlinkMacSystemFont,Segoe UI,Helvetica,Arial,sans-serif" text-anchor="middle">Followers</text>
</g>

<g transform="translate(0,646)">
<rect width="1000" height="246" rx="14" fill="#161b22"/><rect x="0" y="0" width="4" height="246" rx="2" fill="url(#ag)"/><text x="50" y="40" fill="#f0f6fc" font-size="22" font-weight="bold" font-family="-apple-system,BlinkMacSystemFont,Segoe UI,Helvetica,Arial,sans-serif" text-anchor="start">Contribution Streak</text><rect x="50" y="52" width="140" height="3" rx="1.5" fill="url(#ag)"/><rect x="50" y="96" width="289" height="120" rx="10" fill="#0d1117" opacity="0.6"/><rect x="355" y="96" width="289" height="120" rx="10" fill="#0d1117" opacity="0.6"/><rect x="660" y="96" width="289" height="120" rx="10" fill="#0d1117" opacity="0.6"/><svg x="182" y="106" width="24" height="24" viewBox="0 0 24 24"><path d="M12 23c-4-2.5-6-6-6-10 0-4 3-7 6-11 3 4 6 7 6 11 0 4-2 7.5-6 11z" fill="none" stroke="#d29922" stroke-width="1.5"/><path d="M12 23c-2.5-1.5-4-4-4-7 0-3 2-5 4-8 2 3 4 5 4 8 0 3-1.5 5.5-4 7z" fill="#d29922" opacity="0.2"/></svg><text x="194" y="158" fill="#d29922" font-size="30" font-weight="bold" font-family="-apple-system,BlinkMacSystemFont,Segoe UI,Helvetica,Arial,sans-serif" text-anchor="middle">1 day</text><text x="194" y="186" fill="#8b949e" font-size="13" font-weight="normal" font-family="-apple-system,BlinkMacSystemFont,Segoe UI,Helvetica,Arial,sans-serif" text-anchor="middle">Longest Streak</text><text x="499" y="158" fill="#3fb950" font-size="30" font-weight="bold" font-family="-apple-system,BlinkMacSystemFont,Segoe UI,Helvetica,Arial,sans-serif" text-anchor="middle">0 days</text><text x="499" y="186" fill="#8b949e" font-size="13" font-weight="normal" font-family="-apple-system,BlinkMacSystemFont,Segoe UI,Helvetica,Arial,sans-serif" text-anchor="middle">Current Streak</text><text x="804" y="158" fill="#bc8cff" font-size="30" font-weight="bold" font-family="-apple-system,BlinkMacSystemFont,Segoe UI,Helvetica,Arial,sans-serif" text-anchor="middle">1</text><text x="804" y="186" fill="#8b949e" font-size="13" font-weight="normal" font-family="-apple-system,BlinkMacSystemFont,Segoe UI,Helvetica,Arial,sans-serif" text-anchor="middle">Contributions</text>
</g>

<g transform="translate(0,912)">
<rect width="1000" height="254" rx="14" fill="#161b22"/><rect x="0" y="0" width="4" height="254" rx="2" fill="url(#ag)"/><text x="50" y="40" fill="#f0f6fc" font-size="22" font-weight="bold" font-family="-apple-system,BlinkMacSystemFont,Segoe UI,Helvetica,Arial,sans-serif" text-anchor="start">Top Repositories</text><rect x="50" y="52" width="140" height="3" rx="1.5" fill="url(#ag)"/><rect x="50" y="96" width="289" height="130" rx="10" fill="#0d1117" opacity="0.6"/><rect x="355" y="96" width="289" height="130" rx="10" fill="#0d1117" opacity="0.6"/><rect x="660" y="96" width="289" height="130" rx="10" fill="#0d1117" opacity="0.6"/><rect x="66" y="164" width="257" height="1" fill="#30363d"/>
<rect x="371" y="164" width="257" height="1" fill="#30363d"/>
<rect x="676" y="164" width="257" height="1" fill="#30363d"/>
<circle cx="130" cy="185" r="5" fill="#012456"/>
<circle cx="435" cy="185" r="5" fill="#3572A5"/>
<circle cx="740" cy="185" r="5" fill="#ccc"/>
<text x="66" y="126" fill="#58a6ff" font-size="17" font-weight="bold" font-family="-apple-system,BlinkMacSystemFont,Segoe UI,Helvetica,Arial,sans-serif" text-anchor="start">Spotium</text><text x="66" y="150" fill="#8b949e" font-size="12" font-weight="normal" font-family="-apple-system,BlinkMacSystemFont,Segoe UI,Helvetica,Arial,sans-serif" text-anchor="start">Spotify enhancement patcher</text><text x="66" y="190" fill="#d29922" font-size="14" font-weight="normal" font-family="-apple-system,BlinkMacSystemFont,Segoe UI,Helvetica,Arial,sans-serif" text-anchor="start">&#9733; 0</text><text x="140" y="190" fill="#8b949e" font-size="12" font-weight="normal" font-family="-apple-system,BlinkMacSystemFont,Segoe UI,Helvetica,Arial,sans-serif" text-anchor="start">PowerShell</text><text x="371" y="126" fill="#58a6ff" font-size="17" font-weight="bold" font-family="-apple-system,BlinkMacSystemFont,Segoe UI,Helvetica,Arial,sans-serif" text-anchor="start">GitHubWall</text><text x="371" y="150" fill="#8b949e" font-size="12" font-weight="normal" font-family="-apple-system,BlinkMacSystemFont,Segoe UI,Helvetica,Arial,sans-serif" text-anchor="start">README stats generator</text><text x="371" y="190" fill="#d29922" font-size="14" font-weight="normal" font-family="-apple-system,BlinkMacSystemFont,Segoe UI,Helvetica,Arial,sans-serif" text-anchor="start">&#9733; 0</text><text x="445" y="190" fill="#8b949e" font-size="12" font-weight="normal" font-family="-apple-system,BlinkMacSystemFont,Segoe UI,Helvetica,Arial,sans-serif" text-anchor="start">Python</text><text x="676" y="126" fill="#58a6ff" font-size="17" font-weight="bold" font-family="-apple-system,BlinkMacSystemFont,Segoe UI,Helvetica,Arial,sans-serif" text-anchor="start">AbinashKerketta</text><text x="676" y="150" fill="#8b949e" font-size="12" font-weight="normal" font-family="-apple-system,BlinkMacSystemFont,Segoe UI,Helvetica,Arial,sans-serif" text-anchor="start">My profile README</text><text x="676" y="190" fill="#d29922" font-size="14" font-weight="normal" font-family="-apple-system,BlinkMacSystemFont,Segoe UI,Helvetica,Arial,sans-serif" text-anchor="start">&#9733; 0</text><text x="750" y="190" fill="#8b949e" font-size="12" font-weight="normal" font-family="-apple-system,BlinkMacSystemFont,Segoe UI,Helvetica,Arial,sans-serif" text-anchor="start">Markdown</text>
</g>

<g transform="translate(0,1186)">
<rect width="1000" height="400" rx="14" fill="#161b22"/><rect x="0" y="0" width="4" height="400" rx="2" fill="url(#ag)"/><text x="50" y="40" fill="#f0f6fc" font-size="22" font-weight="bold" font-family="-apple-system,BlinkMacSystemFont,Segoe UI,Helvetica,Arial,sans-serif" text-anchor="start">Recent Activity</text><rect x="50" y="52" width="140" height="3" rx="1.5" fill="url(#ag)"/><rect x="50" y="96" width="900" height="52" rx="8" fill="#0d1117" opacity="0.5"/>
<rect x="50" y="96" width="4" height="52" rx="2" fill="#3fb950"/>
<rect x="50" y="154" width="900" height="52" rx="8" fill="#0d1117" opacity="0.5"/>
<rect x="50" y="154" width="4" height="52" rx="2" fill="#3fb950"/>
<rect x="50" y="212" width="900" height="52" rx="8" fill="#0d1117" opacity="0.5"/>
<rect x="50" y="212" width="4" height="52" rx="2" fill="#d29922"/>
<rect x="50" y="270" width="900" height="52" rx="8" fill="#0d1117" opacity="0.5"/>
<rect x="50" y="270" width="4" height="52" rx="2" fill="#bc8cff"/>
<rect x="50" y="328" width="900" height="52" rx="8" fill="#0d1117" opacity="0.5"/>
<rect x="50" y="328" width="4" height="52" rx="2" fill="#3fb950"/>
<circle cx="70" cy="122" r="14" fill="#3fb950" opacity="0.12"/>
<circle cx="70" cy="180" r="14" fill="#3fb950" opacity="0.12"/>
<circle cx="70" cy="238" r="14" fill="#d29922" opacity="0.12"/>
<circle cx="70" cy="296" r="14" fill="#bc8cff" opacity="0.12"/>
<circle cx="70" cy="354" r="14" fill="#3fb950" opacity="0.12"/>
<svg x="58" y="110" width="24" height="24" viewBox="0 0 24 24"><path d="M12 19V5M5 12l7-7 7 7" fill="none" stroke="#3fb950" stroke-width="2"/></svg><svg x="58" y="168" width="24" height="24" viewBox="0 0 24 24"><path d="M12 19V5M5 12l7-7 7 7" fill="none" stroke="#3fb950" stroke-width="2"/></svg><svg x="58" y="226" width="24" height="24" viewBox="0 0 24 24"><path d="M12 2l3.09 6.26L22 9.27l-5 4.87 1.18 6.88L12 17.77l-6.18 3.25L7 14.14l-5-4.87 6.91-1.01L12 2z" fill="#d29922" opacity="0.8"/></svg><svg x="58" y="284" width="24" height="24" viewBox="0 0 24 24"><path d="M14 2H6a2 2 0 00-2 2v16a2 2 0 002 2h12a2 2 0 002-2V8l-6-6z" fill="none" stroke="#bc8cff" stroke-width="1.5"/><path d="M14 2v6h6" fill="none" stroke="#bc8cff" stroke-width="1.5"/></svg><svg x="58" y="342" width="24" height="24" viewBox="0 0 24 24"><path d="M12 19V5M5 12l7-7 7 7" fill="none" stroke="#3fb950" stroke-width="2"/></svg><text x="96" y="118" fill="#f0f6fc" font-size="14" font-weight="bold" font-family="-apple-system,BlinkMacSystemFont,Segoe UI,Helvetica,Arial,sans-serif" text-anchor="start">Pushed in Spotium</text><text x="96" y="138" fill="#8b949e" font-size="12" font-weight="normal" font-family="-apple-system,BlinkMacSystemFont,Segoe UI,Helvetica,Arial,sans-serif" text-anchor="start">3 commits - fix: update renderer</text><text x="96" y="176" fill="#f0f6fc" font-size="14" font-weight="bold" font-family="-apple-system,BlinkMacSystemFont,Segoe UI,Helvetica,Arial,sans-serif" text-anchor="start">Pushed in GitHubWall</text><text x="96" y="196" fill="#8b949e" font-size="12" font-weight="normal" font-family="-apple-system,BlinkMacSystemFont,Segoe UI,Helvetica,Arial,sans-serif" text-anchor="start">5 commits - initial: version 2.0</text><text x="96" y="234" fill="#f0f6fc" font-size="14" font-weight="bold" font-family="-apple-system,BlinkMacSystemFont,Segoe UI,Helvetica,Arial,sans-serif" text-anchor="start">Starred in Spotium</text><text x="96" y="254" fill="#8b949e" font-size="12" font-weight="normal" font-family="-apple-system,BlinkMacSystemFont,Segoe UI,Helvetica,Arial,sans-serif" text-anchor="start">starred this repo</text><text x="96" y="292" fill="#f0f6fc" font-size="14" font-weight="bold" font-family="-apple-system,BlinkMacSystemFont,Segoe UI,Helvetica,Arial,sans-serif" text-anchor="start">Created in GitHubWall</text><text x="96" y="312" fill="#8b949e" font-size="12" font-weight="normal" font-family="-apple-system,BlinkMacSystemFont,Segoe UI,Helvetica,Arial,sans-serif" text-anchor="start">repository main</text><text x="96" y="350" fill="#f0f6fc" font-size="14" font-weight="bold" font-family="-apple-system,BlinkMacSystemFont,Segoe UI,Helvetica,Arial,sans-serif" text-anchor="start">Pushed in GitHubWall</text><text x="96" y="370" fill="#8b949e" font-size="12" font-weight="normal" font-family="-apple-system,BlinkMacSystemFont,Segoe UI,Helvetica,Arial,sans-serif" text-anchor="start">2 commits - docs: update readme</text>
</g>
</svg>