<svg xmlns="http://www.w3.org/2000/svg" width="100%" height="1648" viewBox="0 0 1000 1648"><defs><linearGradient id="ag" x1="0" y1="0" x2="100%" y2="0"><stop offset="0" stop-color="#58a6ff"/><stop offset="100" stop-color="#3fb950"/></linearGradient></defs><rect width="1000" height="1648" fill="#0d1117"/>
<g transform="translate(0,0)">
<rect x="52" y="128" width="263" height="4" rx="2" fill="#012456" opacity="0.15"/>
<circle cx="331" cy="115" r="5" fill="#012456"/>
<text x="343" y="123" fill="#f0f6fc" font-size="14" font-weight="bold" font-family="-apple-system,BlinkMacSystemFont,Segoe UI,Helvetica,Arial,sans-serif" text-anchor="start">PowerShell</text>
<rect x="904" y="102" width="46" height="22" rx="11" fill="#8b949e" opacity="0.12"/><text x="948" y="119" fill="#8b949e" font-size="12" font-weight="bold" font-family="-apple-system,BlinkMacSystemFont,Segoe UI,Helvetica,Arial,sans-serif" text-anchor="end">37.7%</text>
<rect x="50" y="144" width="147" height="30" rx="6" fill="#3572A5" opacity="0.85"/>
<rect x="52" y="172" width="147" height="4" rx="2" fill="#3572A5" opacity="0.15"/>
<circle cx="215" cy="159" r="5" fill="#3572A5"/>
<text x="227" y="167" fill="#f0f6fc" font-size="14" font-weight="bold" font-family="-apple-system,BlinkMacSystemFont,Segoe UI,Helvetica,Arial,sans-serif" text-anchor="start">Python</text>
<rect x="904" y="146" width="46" height="22" rx="11" fill="#8b949e" opacity="0.12"/><text x="948" y="163" fill="#8b949e" font-size="12" font-weight="bold" font-family="-apple-system,BlinkMacSystemFont,Segoe UI,Helvetica,Arial,sans-serif" text-anchor="end">21.1%</text>
<rect x="50" y="188" width="128" height="30" rx="6" fill="#f1e05a" opacity="0.85"/>
<rect x="52" y="216" width="128" height="4" rx="2" fill="#f1e05a" opacity="0.15"/>
<circle cx="196" cy="203" r="5" fill="#f1e05a"/>
<text x="208" y="211" fill="#f0f6fc" font-size="14" font-weight="bold" font-family="-apple-system,BlinkMacSystemFont,Segoe UI,Helvetica,Arial,sans-serif" text-anchor="start">JavaScript</text>
<rect x="904" y="190" width="46" height="22" rx="11" fill="#8b949e" opacity="0.12"/><text x="948" y="207" fill="#8b949e" font-size="12" font-weight="bold" font-family="-apple-system,BlinkMacSystemFont,Segoe UI,Helvetica,Arial,sans-serif" text-anchor="end">18.4%</text>
<rect x="50" y="232" width="92" height="30" rx="6" fill="#563d7c" opacity="0.85"/>
<rect x="52" y="260" width="92" height="4" rx="2" fill="#563d7c" opacity="0.15"/>
<circle cx="160" cy="247" r="5" fill="#563d7c"/>
<text x="172" y="255" fill="#f0f6fc" font-size="14" font-weight="bold" font-family="-apple-system,BlinkMacSystemFont,Segoe UI,Helvetica,Arial,sans-serif" text-anchor="start">CSS</text>
<rect x="904" y="234" width="46" height="22" rx="11" fill="#8b949e" opacity="0.12"/><text x="948" y="251" fill="#8b949e" font-size="12" font-weight="bold" font-family="-apple-system,BlinkMacSystemFont,Segoe UI,Helvetica,Arial,sans-serif" text-anchor="end">13.2%</text>
<rect x="50" y="276" width="55" height="30" rx="6" fill="#e34c26" opacity="0.85"/>
<rect x="52" y="304" width="55" height="4" rx="2" fill="#e34c26" opacity="0.15"/>
<circle cx="123" cy="291" r="5" fill="#e34c26"/>
<text x="135" y="299" fill="#f0f6fc" font-size="14" font-weight="bold" font-family="-apple-system,BlinkMacSystemFont,Segoe UI,Helvetica,Arial,sans-serif" text-anchor="start">HTML</text>
<rect x="904" y="278" width="46" height="22" rx="11" fill="#8b949e" opacity="0.12"/><text x="948" y="295" fill="#8b949e" font-size="12" font-weight="bold" font-family="-apple-system,BlinkMacSystemFont,Segoe UI,Helvetica,Arial,sans-serif" text-anchor="end">7.9%</text>
<rect x="50" y="320" width="12" height="30" rx="6" fill="#C1F12E" opacity="0.85"/>
<rect x="52" y="348" width="12" height="4" rx="2" fill="#C1F12E" opacity="0.15"/>
<circle cx="80" cy="335" r="5" fill="#C1F12E"/>
<text x="92" y="343" fill="#f0f6fc" font-size="14" font-weight="bold" font-family="-apple-system,BlinkMacSystemFont,Segoe UI,Helvetica,Arial,sans-serif" text-anchor="start">Batchfile</text>
<rect x="904" y="322" width="46" height="22" rx="11" fill="#8b949e" opacity="0.12"/><text x="948" y="339" fill="#8b949e" font-size="12" font-weight="bold" font-family="-apple-system,BlinkMacSystemFont,Segoe UI,Helvetica,Arial,sans-serif" text-anchor="end">1.8%</text>
</g>

<g transform="translate(0,406)">
<text x="156" y="190" fill="#8b949e" font-size="13" font-weight="normal" font-family="-apple-system,BlinkMacSystemFont,Segoe UI,Helvetica,Arial,sans-serif" text-anchor="middle">Repos</text>
<rect x="279" y="100" width="213" height="120" rx="10" fill="#0d1117" opacity="0.6"/><svg x="373" y="108" width="24" height="24" viewBox="0 0 24 24" color="#d29922"><path d="M15 3l2.5 5.5L23 9.5l-4.5 4.5 1 6L15 16.5 9.5 20l1-6L7 9.5l5.5-1L15 3z" fill="none" stroke="currentColor" stroke-width="1.5"/></svg><text x="385" y="162" fill="#d29922" font-size="38" font-weight="bold" font-family="-apple-system,BlinkMacSystemFont,Segoe UI,Helvetica,Arial,sans-serif" text-anchor="middle">0</text>
<text x="385" y="190" fill="#8b949e" font-size="13" font-weight="normal" font-family="-apple-system,BlinkMacSystemFont,Segoe UI,Helvetica,Arial,sans-serif" text-anchor="middle">Stars</text>
<rect x="508" y="100" width="213" height="120" rx="10" fill="#0d1117" opacity="0.6"/><svg x="602" y="108" width="24" height="24" viewBox="0 0 24 24" color="#bc8cff"><path d="M10 9a3 3 0 100-6 3 3 0 000 6zM20 9a3 3 0 100-6 3 3 0 000 6zM10 21a3 3 0 100-6 3 3 0 000 6zM10 12v3M17 7l-4 3.5M17 17l-4-3.5" stroke="currentColor" stroke-width="1.5" fill="none"/></svg><text x="614" y="162" fill="#bc8cff" font-size="38" font-weight="bold" font-family="-apple-system,BlinkMacSystemFont,Segoe UI,Helvetica,Arial,sans-serif" text-anchor="middle">0</text>
<text x="614" y="190" fill="#8b949e" font-size="13" font-weight="normal" font-family="-apple-system,BlinkMacSystemFont,Segoe UI,Helvetica,Arial,sans-serif" text-anchor="middle">Forks</text>
<rect x="737" y="100" width="213" height="120" rx="10" fill="#0d1117" opacity="0.6"/><svg x="831" y="108" width="24" height="24" viewBox="0 0 24 24" color="#3fb950"><path d="M17 19v2H3v-2a4 4 0 014-4h6a4 4 0 014 4zM10 9a3 3 0 100-6 3 3 0 000 6zM20 15v3M21.5 16.5h-3" stroke="currentColor" stroke-width="1.5" fill="none"/></svg><text x="843" y="162" fill="#3fb950" font-size="38" font-weight="bold" font-family="-apple-system,BlinkMacSystemFont,Segoe UI,Helvetica,Arial,sans-serif" text-anchor="middle">0</text>
<text x="843" y="190" fill="#8b949e" font-size="13" font-weight="normal" font-family="-apple-system,BlinkMacSystemFont,Segoe UI,Helvetica,Arial,sans-serif" text-anchor="middle">Followers</text>
</g>

<g transform="translate(0,676)">
<text x="194" y="190" fill="#8b949e" font-size="13" font-weight="normal" font-family="-apple-system,BlinkMacSystemFont,Segoe UI,Helvetica,Arial,sans-serif" text-anchor="middle">Longest Streak</text>
<rect x="355" y="100" width="289" height="120" rx="10" fill="#0d1117" opacity="0.6"/><text x="499" y="162" fill="#3fb950" font-size="30" font-weight="bold" font-family="-apple-system,BlinkMacSystemFont,Segoe UI,Helvetica,Arial,sans-serif" text-anchor="middle">0 days</text>
<text x="499" y="190" fill="#8b949e" font-size="13" font-weight="normal" font-family="-apple-system,BlinkMacSystemFont,Segoe UI,Helvetica,Arial,sans-serif" text-anchor="middle">Current Streak</text>
<rect x="660" y="100" width="289" height="120" rx="10" fill="#0d1117" opacity="0.6"/><text x="804" y="162" fill="#bc8cff" font-size="30" font-weight="bold" font-family="-apple-system,BlinkMacSystemFont,Segoe UI,Helvetica,Arial,sans-serif" text-anchor="middle">1</text>
<text x="804" y="190" fill="#8b949e" font-size="13" font-weight="normal" font-family="-apple-system,BlinkMacSystemFont,Segoe UI,Helvetica,Arial,sans-serif" text-anchor="middle">Contributions</text>
</g>

<g transform="translate(0,946)">
<text x="66" y="154" fill="#8b949e" font-size="12" font-weight="normal" font-family="-apple-system,BlinkMacSystemFont,Segoe UI,Helvetica,Arial,sans-serif" text-anchor="start">Spotify desktop enhancement patcher with loca...</text>
<rect x="66" y="168" width="257" height="1" fill="#30363d"/>
<text x="66" y="194" fill="#d29922" font-size="14" font-weight="normal" font-family="-apple-system,BlinkMacSystemFont,Segoe UI,Helvetica,Arial,sans-serif" text-anchor="start">&#9733; 0</text>
<circle cx="130" cy="189" r="5" fill="#012456"/>
<text x="140" y="194" fill="#8b949e" font-size="12" font-weight="normal" font-family="-apple-system,BlinkMacSystemFont,Segoe UI,Helvetica,Arial,sans-serif" text-anchor="start">PowerShell</text>
<rect x="355" y="100" width="289" height="130" rx="10" fill="#0d1117" opacity="0.6"/><text x="371" y="130" fill="#58a6ff" font-size="17" font-weight="bold" font-family="-apple-system,BlinkMacSystemFont,Segoe UI,Helvetica,Arial,sans-serif" text-anchor="start">GitHubWall</text>
<text x="371" y="154" fill="#8b949e" font-size="12" font-weight="normal" font-family="-apple-system,BlinkMacSystemFont,Segoe UI,Helvetica,Arial,sans-serif" text-anchor="start">Personal GitHub README stats generator with a...</text>
<rect x="371" y="168" width="257" height="1" fill="#30363d"/>
<text x="371" y="194" fill="#d29922" font-size="14" font-weight="normal" font-family="-apple-system,BlinkMacSystemFont,Segoe UI,Helvetica,Arial,sans-serif" text-anchor="start">&#9733; 0</text>
<circle cx="435" cy="189" r="5" fill="#3572A5"/>
<text x="445" y="194" fill="#8b949e" font-size="12" font-weight="normal" font-family="-apple-system,BlinkMacSystemFont,Segoe UI,Helvetica,Arial,sans-serif" text-anchor="start">Python</text>
<rect x="660" y="100" width="289" height="130" rx="10" fill="#0d1117" opacity="0.6"/><text x="676" y="130" fill="#58a6ff" font-size="17" font-weight="bold" font-family="-apple-system,BlinkMacSystemFont,Segoe UI,Helvetica,Arial,sans-serif" text-anchor="start">AbinashKerketta</text>
<text x="676" y="154" fill="#8b949e" font-size="12" font-weight="normal" font-family="-apple-system,BlinkMacSystemFont,Segoe UI,Helvetica,Arial,sans-serif" text-anchor="start">My GitHub profile README</text>
<rect x="676" y="168" width="257" height="1" fill="#30363d"/>
<text x="676" y="194" fill="#d29922" font-size="14" font-weight="normal" font-family="-apple-system,BlinkMacSystemFont,Segoe UI,Helvetica,Arial,sans-serif" text-anchor="start">&#9733; 0</text>
<circle cx="740" cy="189" r="5" fill="#ccc"/>
<text x="750" y="194" fill="#8b949e" font-size="12" font-weight="normal" font-family="-apple-system,BlinkMacSystemFont,Segoe UI,Helvetica,Arial,sans-serif" text-anchor="start">Markdown</text>
</g>

<g transform="translate(0,1224)">
<rect x="50" y="100" width="4" height="52" rx="2" fill="#3fb950"/>
<circle cx="68" cy="126" r="14" fill="#3fb950" opacity="0.12"/>
<text x="68" y="131" fill="#3fb950" font-size="13" font-weight="bold" font-family="-apple-system,BlinkMacSystemFont,Segoe UI,Helvetica,Arial,sans-serif" text-anchor="middle">↑</text>
<text x="96" y="122" fill="#f0f6fc" font-size="14" font-weight="bold" font-family="-apple-system,BlinkMacSystemFont,Segoe UI,Helvetica,Arial,sans-serif" text-anchor="start">Pushed in Spotium</text>
<text x="96" y="142" fill="#8b949e" font-size="12" font-weight="normal" font-family="-apple-system,BlinkMacSystemFont,Segoe UI,Helvetica,Arial,sans-serif" text-anchor="start">3 commits - fix: update renderer</text>
<rect x="50" y="158" width="900" height="52" rx="8" fill="#0d1117" opacity="0.5"/>
<rect x="50" y="158" width="4" height="52" rx="2" fill="#3fb950"/>
<circle cx="68" cy="184" r="14" fill="#3fb950" opacity="0.12"/>
<text x="68" y="189" fill="#3fb950" font-size="13" font-weight="bold" font-family="-apple-system,BlinkMacSystemFont,Segoe UI,Helvetica,Arial,sans-serif" text-anchor="middle">↑</text>
<text x="96" y="180" fill="#f0f6fc" font-size="14" font-weight="bold" font-family="-apple-system,BlinkMacSystemFont,Segoe UI,Helvetica,Arial,sans-serif" text-anchor="start">Pushed in GitHubWall</text>
<text x="96" y="200" fill="#8b949e" font-size="12" font-weight="normal" font-family="-apple-system,BlinkMacSystemFont,Segoe UI,Helvetica,Arial,sans-serif" text-anchor="start">5 commits - initial: version 2.0</text>
<rect x="50" y="216" width="900" height="52" rx="8" fill="#0d1117" opacity="0.5"/>
<rect x="50" y="216" width="4" height="52" rx="2" fill="#d29922"/>
<circle cx="68" cy="242" r="14" fill="#d29922" opacity="0.12"/>
<text x="68" y="247" fill="#d29922" font-size="13" font-weight="bold" font-family="-apple-system,BlinkMacSystemFont,Segoe UI,Helvetica,Arial,sans-serif" text-anchor="middle">★</text>
<text x="96" y="238" fill="#f0f6fc" font-size="14" font-weight="bold" font-family="-apple-system,BlinkMacSystemFont,Segoe UI,Helvetica,Arial,sans-serif" text-anchor="start">Starred in Spotium</text>
<text x="96" y="258" fill="#8b949e" font-size="12" font-weight="normal" font-family="-apple-system,BlinkMacSystemFont,Segoe UI,Helvetica,Arial,sans-serif" text-anchor="start">starred this repo</text>
<rect x="50" y="274" width="900" height="52" rx="8" fill="#0d1117" opacity="0.5"/>
<rect x="50" y="274" width="4" height="52" rx="2" fill="#bc8cff"/>
<circle cx="68" cy="300" r="14" fill="#bc8cff" opacity="0.12"/>
<text x="68" y="305" fill="#bc8cff" font-size="13" font-weight="bold" font-family="-apple-system,BlinkMacSystemFont,Segoe UI,Helvetica,Arial,sans-serif" text-anchor="middle">+</text>
<text x="96" y="296" fill="#f0f6fc" font-size="14" font-weight="bold" font-family="-apple-system,BlinkMacSystemFont,Segoe UI,Helvetica,Arial,sans-serif" text-anchor="start">Created in GitHubWall</text>
<text x="96" y="316" fill="#8b949e" font-size="12" font-weight="normal" font-family="-apple-system,BlinkMacSystemFont,Segoe UI,Helvetica,Arial,sans-serif" text-anchor="start">repository main</text>
<rect x="50" y="332" width="900" height="52" rx="8" fill="#0d1117" opacity="0.5"/>
<rect x="50" y="332" width="4" height="52" rx="2" fill="#3fb950"/>
<circle cx="68" cy="358" r="14" fill="#3fb950" opacity="0.12"/>
<text x="68" y="363" fill="#3fb950" font-size="13" font-weight="bold" font-family="-apple-system,BlinkMacSystemFont,Segoe UI,Helvetica,Arial,sans-serif" text-anchor="middle">↑</text>
<text x="96" y="354" fill="#f0f6fc" font-size="14" font-weight="bold" font-family="-apple-system,BlinkMacSystemFont,Segoe UI,Helvetica,Arial,sans-serif" text-anchor="start">Pushed in GitHubWall</text>
<text x="96" y="374" fill="#8b949e" font-size="12" font-weight="normal" font-family="-apple-system,BlinkMacSystemFont,Segoe UI,Helvetica,Arial,sans-serif" text-anchor="start">2 commits - docs: update readme</text>
</g>
</svg>