<svg xmlns="http://www.w3.org/2000/svg" width="100%" height="360" viewBox="0 0 1000 360"><defs><linearGradient id="ag" x1="0" y1="0" x2="100%" y2="0"><stop offset="0" stop-color="#58a6ff"/><stop offset="100%" stop-color="#3fb950"/></linearGradient></defs><rect width="1000" height="360" rx="14" fill="#161b22"/><rect x="0" y="0" width="4" height="360" rx="2" fill="url(#ag)"/><text x="50" y="40" fill="#f0f6fc" font-size="22" font-weight="bold" font-family="-apple-system,BlinkMacSystemFont,Segoe UI,Helvetica,Arial,sans-serif" text-anchor="start">Most Used Languages</text><rect x="50" y="52" width="140" height="3" rx="1.5" fill="url(#ag)"/><rect x="44" y="84" width="912" height="252" rx="10" fill="#0d1117" opacity="0.6"/><rect x="50" y="96" width="267" height="28" rx="6" fill="#012456" opacity="0.85"/>
<rect x="51" y="124" width="267" height="4" rx="2" fill="#012456" opacity="0.15"/>
<circle cx="333" cy="110" r="5" fill="#012456"/>
<rect x="50" y="136" width="149" height="28" rx="6" fill="#3572A5" opacity="0.85"/>
<rect x="51" y="164" width="149" height="4" rx="2" fill="#3572A5" opacity="0.15"/>
<circle cx="215" cy="150" r="5" fill="#3572A5"/>
<rect x="50" y="176" width="130" height="28" rx="6" fill="#f1e05a" opacity="0.85"/>
<rect x="51" y="204" width="130" height="4" rx="2" fill="#f1e05a" opacity="0.15"/>
<circle cx="196" cy="190" r="5" fill="#f1e05a"/>
<rect x="50" y="216" width="93" height="28" rx="6" fill="#563d7c" opacity="0.85"/>
<rect x="51" y="244" width="93" height="4" rx="2" fill="#563d7c" opacity="0.15"/>
<circle cx="159" cy="230" r="5" fill="#563d7c"/>
<rect x="50" y="256" width="56" height="28" rx="6" fill="#e34c26" opacity="0.85"/>
<rect x="51" y="284" width="56" height="4" rx="2" fill="#e34c26" opacity="0.15"/>
<circle cx="122" cy="270" r="5" fill="#e34c26"/>
<rect x="50" y="296" width="12" height="28" rx="6" fill="#C1F12E" opacity="0.85"/>
<rect x="51" y="324" width="12" height="4" rx="2" fill="#C1F12E" opacity="0.15"/>
<circle cx="78" cy="310" r="5" fill="#C1F12E"/>
<text x="345" y="116" fill="#f0f6fc" font-size="14" font-weight="bold" font-family="-apple-system,BlinkMacSystemFont,Segoe UI,Helvetica,Arial,sans-serif" text-anchor="start">PowerShell</text><rect x="904" y="98" width="46" height="22" rx="11" fill="#8b949e" opacity="0.12"/><text x="948" y="114" fill="#8b949e" font-size="12" font-weight="bold" font-family="-apple-system,BlinkMacSystemFont,Segoe UI,Helvetica,Arial,sans-serif" text-anchor="end">37.7%</text><text x="227" y="156" fill="#f0f6fc" font-size="14" font-weight="bold" font-family="-apple-system,BlinkMacSystemFont,Segoe UI,Helvetica,Arial,sans-serif" text-anchor="start">Python</text><rect x="904" y="138" width="46" height="22" rx="11" fill="#8b949e" opacity="0.12"/><text x="948" y="154" fill="#8b949e" font-size="12" font-weight="bold" font-family="-apple-system,BlinkMacSystemFont,Segoe UI,Helvetica,Arial,sans-serif" text-anchor="end">21.1%</text><text x="208" y="196" fill="#f0f6fc" font-size="14" font-weight="bold" font-family="-apple-system,BlinkMacSystemFont,Segoe UI,Helvetica,Arial,sans-serif" text-anchor="start">JavaScript</text><rect x="904" y="178" width="46" height="22" rx="11" fill="#8b949e" opacity="0.12"/><text x="948" y="194" fill="#8b949e" font-size="12" font-weight="bold" font-family="-apple-system,BlinkMacSystemFont,Segoe UI,Helvetica,Arial,sans-serif" text-anchor="end">18.4%</text><text x="171" y="236" fill="#f0f6fc" font-size="14" font-weight="bold" font-family="-apple-system,BlinkMacSystemFont,Segoe UI,Helvetica,Arial,sans-serif" text-anchor="start">CSS</text><rect x="904" y="218" width="46" height="22" rx="11" fill="#8b949e" opacity="0.12"/><text x="948" y="234" fill="#8b949e" font-size="12" font-weight="bold" font-family="-apple-system,BlinkMacSystemFont,Segoe UI,Helvetica,Arial,sans-serif" text-anchor="end">13.2%</text><text x="134" y="276" fill="#f0f6fc" font-size="14" font-weight="bold" font-family="-apple-system,BlinkMacSystemFont,Segoe UI,Helvetica,Arial,sans-serif" text-anchor="start">HTML</text><rect x="904" y="258" width="46" height="22" rx="11" fill="#8b949e" opacity="0.12"/><text x="948" y="274" fill="#8b949e" font-size="12" font-weight="bold" font-family="-apple-system,BlinkMacSystemFont,Segoe UI,Helvetica,Arial,sans-serif" text-anchor="end">7.9%</text><text x="90" y="316" fill="#f0f6fc" font-size="14" font-weight="bold" font-family="-apple-system,BlinkMacSystemFont,Segoe UI,Helvetica,Arial,sans-serif" text-anchor="start">Batchfile</text><rect x="904" y="298" width="46" height="22" rx="11" fill="#8b949e" opacity="0.12"/><text x="948" y="314" fill="#8b949e" font-size="12" font-weight="bold" font-family="-apple-system,BlinkMacSystemFont,Segoe UI,Helvetica,Arial,sans-serif" text-anchor="end">1.8%</text></svg>