<svg xmlns="http://www.w3.org/2000/svg" width="100%" height="246" viewBox="0 0 1000 246"><defs><linearGradient id="ag" x1="0" y1="0" x2="100%" y2="0"><stop offset="0" stop-color="#58a6ff"/><stop offset="100%" stop-color="#3fb950"/></linearGradient></defs><rect width="1000" height="246" rx="14" fill="#161b22"/><rect x="0" y="0" width="4" height="246" rx="2" fill="url(#ag)"/><text x="50" y="40" fill="#f0f6fc" font-size="22" font-weight="bold" font-family="-apple-system,BlinkMacSystemFont,Segoe UI,Helvetica,Arial,sans-serif" text-anchor="start">GitHub Statistics</text><rect x="50" y="52" width="140" height="3" rx="1.5" fill="url(#ag)"/><rect x="50" y="96" width="213" height="120" rx="10" fill="#0d1117" opacity="0.6"/><rect x="279" y="96" width="213" height="120" rx="10" fill="#0d1117" opacity="0.6"/><rect x="508" y="96" width="213" height="120" rx="10" fill="#0d1117" opacity="0.6"/><rect x="737" y="96" width="213" height="120" rx="10" fill="#0d1117" opacity="0.6"/><svg x="144" y="106" width="24" height="24" viewBox="0 0 24 24"><path d="M6 7v10a2 2 0 002 2h8a2 2 0 002-2V7" fill="none" stroke="#58a6ff" stroke-width="1.5"/><path d="M6 7l6-3 6 3" fill="none" stroke="#58a6ff" stroke-width="1.5"/><path d="M6 11h12M9 7v10" fill="none" stroke="#58a6ff" stroke-width="1.5"/></svg><svg x="373" y="106" width="24" height="24" viewBox="0 0 24 24"><path d="M12 2l3.09 6.26L22 9.27l-5 4.87 1.18 6.88L12 17.77l-6.18 3.25L7 14.14l-5-4.87 6.91-1.01L12 2z" fill="none" stroke="#d29922" stroke-width="1.5"/></svg><svg x="602" y="106" width="24" height="24" viewBox="0 0 24 24"><path d="M12 7a3 3 0 100-6 3 3 0 000 6zM12 7a3 3 0 100-6 3 3 0 000 6zM12 17a3 3 0 100-6 3 3 0 000 6z" fill="none" stroke="#bc8cff" stroke-width="1.5"/><path d="M12 10v3M17 4.5l-5 3M17 12.5l-5-3" fill="none" stroke="#bc8cff" stroke-width="1.5"/></svg><svg x="831" y="106" width="24" height="24" viewBox="0 0 24 24"><path d="M17 21v-2a4 4 0 00-4-4H5a4 4 0 00-4 4v2" fill="none" stroke="#3fb950" stroke-width="1.5"/><circle cx="9" cy="7" r="4" fill="none" stroke="#3fb950" stroke-width="1.5"/></svg><text x="156" y="158" fill="#58a6ff" font-size="38" font-weight="bold" font-family="-apple-system,BlinkMacSystemFont,Segoe UI,Helvetica,Arial,sans-serif" text-anchor="middle">3</text><text x="156" y="186" fill="#8b949e" font-size="13" font-weight="normal" font-family="-apple-system,BlinkMacSystemFont,Segoe UI,Helvetica,Arial,sans-serif" text-anchor="middle">Repos</text><text x="385" y="158" fill="#d29922" font-size="38" font-weight="bold" font-family="-apple-system,BlinkMacSystemFont,Segoe UI,Helvetica,Arial,sans-serif" text-anchor="middle">0</text><text x="385" y="186" fill="#8b949e" font-size="13" font-weight="normal" font-family="-apple-system,BlinkMacSystemFont,Segoe UI,Helvetica,Arial,sans-serif" text-anchor="middle">Stars</text><text x="614" y="158" fill="#bc8cff" font-size="38" font-weight="bold" font-family="-apple-system,BlinkMacSystemFont,Segoe UI,Helvetica,Arial,sans-serif" text-anchor="middle">0</text><text x="614" y="186" fill="#8b949e" font-size="13" font-weight="normal" font-family="-apple-system,BlinkMacSystemFont,Segoe UI,Helvetica,Arial,sans-serif" text-anchor="middle">Forks</text><text x="843" y="158" fill="#3fb950" font-size="38" font-weight="bold" font-family="-apple-system,BlinkMacSystemFont,Segoe UI,Helvetica,Arial,sans-serif" text-anchor="middle">0</text><text x="843" y="186" fill="#8b949e" font-size="13" font-weight="normal" font-family="-apple-system,BlinkMacSystemFont,Segoe UI,Helvetica,Arial,sans-serif" text-anchor="middle">Followers</text></svg>