<svg xmlns="http://www.w3.org/2000/svg" width="100%" height="250" viewBox="0 0 1000 250"><defs><linearGradient id="ag" x1="0" y1="0" x2="100%" y2="0"><stop offset="0" stop-color="#58a6ff"/><stop offset="100%" stop-color="#3fb950"/></linearGradient><linearGradient id="ag2" x1="0" y1="0" x2="0" y2="100%"><stop offset="0" stop-color="#58a6ff" stop-opacity="0.15"/><stop offset="100%" stop-color="#3fb950" stop-opacity="0"/></linearGradient></defs><rect width="1000" height="250" rx="14" fill="#161b22"/><rect x="0" y="0" width="4" height="250" rx="2" fill="url(#ag)"/><text x="50" y="40" fill="#f0f6fc" font-size="22" font-weight="bold" font-family="-apple-system,BlinkMacSystemFont,Segoe UI,Helvetica,Arial,sans-serif" text-anchor="start">GitHub Statistics</text><rect x="50" y="52" width="140" height="3" rx="1.5" fill="url(#ag)"/><rect x="4" y="0" width="996" height="80" rx="0" fill="url(#ag2)"/><rect x="50" y="100" width="213" height="120" rx="10" fill="#0d1117" opacity="0.6"/><svg x="144" y="108" width="24" height="24" viewBox="0 0 24 24" color="#58a6ff"><rect x="8" y="6" width="14" height="18" rx="3" fill="none" stroke="currentColor" stroke-width="1.5"/><path d="M8 10h14M12 6v2" stroke="currentColor" stroke-width="1.5"/></svg><text x="156" y="162" fill="#58a6ff" font-size="38" font-weight="bold" font-family="-apple-system,BlinkMacSystemFont,Segoe UI,Helvetica,Arial,sans-serif" text-anchor="middle">3</text>
<text x="156" y="190" fill="#8b949e" font-size="13" font-weight="normal" font-family="-apple-system,BlinkMacSystemFont,Segoe UI,Helvetica,Arial,sans-serif" text-anchor="middle">Repos</text>
<rect x="279" y="100" width="213" height="120" rx="10" fill="#0d1117" opacity="0.6"/><svg x="373" y="108" width="24" height="24" viewBox="0 0 24 24" color="#d29922"><path d="M15 3l2.5 5.5L23 9.5l-4.5 4.5 1 6L15 16.5 9.5 20l1-6L7 9.5l5.5-1L15 3z" fill="none" stroke="currentColor" stroke-width="1.5"/></svg><text x="385" y="162" fill="#d29922" font-size="38" font-weight="bold" font-family="-apple-system,BlinkMacSystemFont,Segoe UI,Helvetica,Arial,sans-serif" text-anchor="middle">0</text>
<text x="385" y="190" fill="#8b949e" font-size="13" font-weight="normal" font-family="-apple-system,BlinkMacSystemFont,Segoe UI,Helvetica,Arial,sans-serif" text-anchor="middle">Stars</text>
<rect x="508" y="100" width="213" height="120" rx="10" fill="#0d1117" opacity="0.6"/><svg x="602" y="108" width="24" height="24" viewBox="0 0 24 24" color="#bc8cff"><path d="M10 9a3 3 0 100-6 3 3 0 000 6zM20 9a3 3 0 100-6 3 3 0 000 6zM10 21a3 3 0 100-6 3 3 0 000 6zM10 12v3M17 7l-4 3.5M17 17l-4-3.5" stroke="currentColor" stroke-width="1.5" fill="none"/></svg><text x="614" y="162" fill="#bc8cff" font-size="38" font-weight="bold" font-family="-apple-system,BlinkMacSystemFont,Segoe UI,Helvetica,Arial,sans-serif" text-anchor="middle">0</text>
<text x="614" y="190" fill="#8b949e" font-size="13" font-weight="normal" font-family="-apple-system,BlinkMacSystemFont,Segoe UI,Helvetica,Arial,sans-serif" text-anchor="middle">Forks</text>
<rect x="737" y="100" width="213" height="120" rx="10" fill="#0d1117" opacity="0.6"/><svg x="831" y="108" width="24" height="24" viewBox="0 0 24 24" color="#3fb950"><path d="M17 19v2H3v-2a4 4 0 014-4h6a4 4 0 014 4zM10 9a3 3 0 100-6 3 3 0 000 6zM20 15v3M21.5 16.5h-3" stroke="currentColor" stroke-width="1.5" fill="none"/></svg><text x="843" y="162" fill="#3fb950" font-size="38" font-weight="bold" font-family="-apple-system,BlinkMacSystemFont,Segoe UI,Helvetica,Arial,sans-serif" text-anchor="middle">0</text>
<text x="843" y="190" fill="#8b949e" font-size="13" font-weight="normal" font-family="-apple-system,BlinkMacSystemFont,Segoe UI,Helvetica,Arial,sans-serif" text-anchor="middle">Followers</text>
</svg>